# xmcd
#
# Track frame offsets:
# 150
# 28433
# 57410
# 85628
# 114229
#
# Disc length: 1903 seconds
#
#
# Revision: 6
# Processed by: cddbd v1.5.2PL0 Copyright (c) Steve Scherf et al.
# Submitted via: FreeRIP 2.951 
#
DISCID=39076d05
DTITLE=???????????????????????????can/goo?????????????JAM Project????????????????unicorn table????? - ONENESS
DYEAR=2005
DGENRE=Anime
TTITLE0=ONENESS
TTITLE1=ONENESS(?Only Vocal Version)
TTITLE2=ONENESS(? Only Vocal Version)
TTITLE3=ONENESS( OFF Vocal Version)
TTITLE4=? <instrumental>
EXTD=YEAR: 2005
EXTT0=
EXTT1=
EXTT2=
EXTT3=
EXTT4=
PLAYORDER=
